HIERARCHY
ROOT joint_Root
{
	OFFSET 0.0 0.0 0.0
	CHANNELS 6 Xposition Yposition Zposition Zrotation Xrotation Yrotation 
	JOINT Hips
	{
		OFFSET -0.726466 93.3139 -2.00062
		CHANNELS 6 Xposition Yposition Zposition Zrotation Xrotation Yrotation 
		JOINT Spine
		{
			OFFSET 15.7357 0.0 0.0
			CHANNELS 6 Xposition Yposition Zposition Zrotation Xrotation Yrotation 
			JOINT Chest
			{
				OFFSET 8.98455 -0.406207 0.0
				CHANNELS 6 Xposition Yposition Zposition Zrotation Xrotation Yrotation 
				JOINT Neck
				{
					OFFSET 16.3773 0.0 0.0
					CHANNELS 6 Xposition Yposition Zposition Zrotation Xrotation Yrotation 
					JOINT Head
					{
						OFFSET 6.45672 0.0 0.0
						CHANNELS 6 Xposition Yposition Zposition Zrotation Xrotation Yrotation 
						End Site
						{
							OFFSET 0.0 0.0 0.0
						}
					}
				}
				JOINT Shoulder_L
				{
					OFFSET 12.9942 -0.242716 4.98039
					CHANNELS 6 Xposition Yposition Zposition Zrotation Xrotation Yrotation 
					JOINT UpperArm_L
					{
						OFFSET 5.34809 0.0 0.0
						CHANNELS 6 Xposition Yposition Zposition Zrotation Xrotation Yrotation 
						JOINT LowerArm_L
						{
							OFFSET 24.3286 1.87007e-05 0.0
							CHANNELS 6 Xposition Yposition Zposition Zrotation Xrotation Yrotation 
							JOINT Hand_L
							{
								OFFSET 22.2916 0.0 0.0
								CHANNELS 6 Xposition Yposition Zposition Zrotation Xrotation Yrotation 
								End Site
								{
									OFFSET 0.0 0.0 0.0
								}
							}
						}
					}
				}
				JOINT Shoulder_R
				{
					OFFSET 12.9945 -0.242716 -4.98039
					CHANNELS 6 Xposition Yposition Zposition Zrotation Xrotation Yrotation 
					JOINT UpperArm_R
					{
						OFFSET -5.34813 0.0 0.0
						CHANNELS 6 Xposition Yposition Zposition Zrotation Xrotation Yrotation 
						JOINT LowerArm_R
						{
							OFFSET -24.3289 0.000322201 0.0
							CHANNELS 6 Xposition Yposition Zposition Zrotation Xrotation Yrotation 
							JOINT Hand_R
							{
								OFFSET -22.2915 -0.000108084 0.0
								CHANNELS 6 Xposition Yposition Zposition Zrotation Xrotation Yrotation 
								End Site
								{
									OFFSET 0.0 0.0 0.0
								}
							}
						}
					}
				}
			}
		}
		JOINT UpperLeg_L
		{
			OFFSET -2.19248 -6.46944 0.0
			CHANNELS 6 Xposition Yposition Zposition Zrotation Xrotation Yrotation 
			JOINT LowerLeg_L
			{
				OFFSET 39.0811 0.0 -1.23785e-05
				CHANNELS 6 Xposition Yposition Zposition Zrotation Xrotation Yrotation 
				JOINT Foot_L
				{
					OFFSET 40.9854 0.0 -1.26872e-05
					CHANNELS 6 Xposition Yposition Zposition Zrotation Xrotation Yrotation 
					JOINT Toes_L
					{
						OFFSET 11.7543 0.0 0.0
						CHANNELS 6 Xposition Yposition Zposition Zrotation Xrotation Yrotation 
						End Site
						{
							OFFSET 0.0 0.0 0.0
						}
					}
				}
			}
		}
		JOINT UpperLeg_R
		{
			OFFSET -2.19251 6.46944 0.0
			CHANNELS 6 Xposition Yposition Zposition Zrotation Xrotation Yrotation 
			JOINT LowerLeg_R
			{
				OFFSET -39.0811 -0.00228153 -0.0401928
				CHANNELS 6 Xposition Yposition Zposition Zrotation Xrotation Yrotation 
				JOINT Foot_R
				{
					OFFSET -40.9854 0.0 0.0
					CHANNELS 6 Xposition Yposition Zposition Zrotation Xrotation Yrotation 
					JOINT Toes_R
					{
						OFFSET -11.7543 0.0 0.0
						CHANNELS 6 Xposition Yposition Zposition Zrotation Xrotation Yrotation 
						End Site
						{
							OFFSET 0.0 0.0 0.0
						}
					}
				}
			}
		}
	}
}
MOTION
Frames:	7
Frame Time:	0.0333333
0.000000 0.000000 0.000000 0.000000 0.000000 -0.000000 -4.702900 84.734400 56.710800 -84.812500 0.270600 177.282000 15.735700 0.000005 -0.000001 73.826500 81.856800 -70.681100 8.984550 -0.406207 -0.000000 8.026550 -4.509970 6.603800 16.377300 -0.000001 -0.000001 -1.162730 -0.637071 -2.292600 6.456720 -0.000001 -0.000000 -0.296510 2.858930 -2.371980 12.994200 -0.242716 4.980390 -88.821300 -3.365440 -70.679300 5.348090 -0.000007 -0.000001 -70.155100 36.360700 -10.504900 24.328600 0.000019 0.000005 3.227970 0.072099 -88.818400 22.291600 -0.000001 0.000005 1.367890 5.642910 -14.376300 12.994500 -0.242716 -4.980390 88.035700 4.663360 -67.121400 -5.348130 -0.000001 -0.000004 -58.950800 32.177500 -3.198140 -24.328900 0.000322 -0.000009 0.343353 -0.068885 -101.286000 -22.291500 -0.000108 -0.000004 9.253730 5.582310 -10.334200 -2.192480 -6.469440 -0.000000 -170.915000 -6.994440 0.085562 39.081100 -0.000007 -0.000012 -0.049390 -0.004781 95.540400 40.985400 -0.000006 -0.000013 6.214720 -9.558060 -39.271400 11.754300 -0.000000 0.000003 -0.006754 -0.077543 -19.733300 -2.192510 6.469440 -0.000001 -166.874000 6.060050 147.273000 -39.081100 -0.002282 -0.040193 0.186464 -0.140655 52.488100 -40.985400 0.000008 0.000006 13.729700 -2.936870 -72.570400 -11.754300 -0.000006 -0.000006 -0.004398 -0.055521 -18.831800
0.000000 0.000000 0.000000 0.000000 0.000000 -0.000000 -4.526290 83.120000 47.415100 -84.782900 0.745676 178.561000 15.735700 0.000005 -0.000001 78.681200 81.446100 -75.401600 8.984550 -0.406207 -0.000000 9.123740 -3.300850 6.818690 16.377300 -0.000001 -0.000001 -1.187440 -0.311827 -1.781130 6.456720 -0.000001 -0.000000 -0.914629 2.605400 -3.915310 12.994200 -0.242716 4.980390 -89.187800 -2.237980 -70.046500 5.348090 -0.000007 -0.000001 -70.569700 33.971700 -2.641360 24.328600 0.000019 0.000005 9.533720 1.006280 -84.031300 22.291600 -0.000001 0.000005 0.683627 5.644400 -14.490400 12.994500 -0.242716 -4.980390 87.564100 6.029820 -67.954000 -5.348130 -0.000001 -0.000004 -52.904400 35.371600 -19.690300 -24.328900 0.000322 -0.000009 0.917423 -0.160517 -99.907300 -22.291500 -0.000108 -0.000004 9.949290 5.581290 -10.286900 -2.192480 -6.469440 -0.000000 -172.391000 -6.364600 -11.455100 39.081100 -0.000007 -0.000012 -0.371412 -0.130973 109.426000 40.985400 -0.000006 -0.000013 10.894100 -8.074100 -38.967900 11.754300 -0.000000 0.000003 -0.007144 -0.080908 -19.870700 -2.192510 6.469440 -0.000001 -167.496000 8.220620 153.448000 -39.081100 -0.002282 -0.040193 0.229023 -0.143631 57.540900 -40.985400 0.000008 0.000006 14.486900 -3.551880 -81.684100 -11.754300 -0.000006 -0.000006 -0.003692 -0.048197 -18.533500
0.000000 0.000000 0.000000 0.000000 0.000000 -0.000000 -4.762860 82.904500 38.173400 -87.095400 0.501029 176.984000 15.735700 0.000005 -0.000001 86.787300 82.291500 -84.030200 8.984550 -0.406207 -0.000000 7.654140 -0.863113 5.566500 16.377300 -0.000001 -0.000001 -1.044710 -1.351030 -1.237000 6.456720 -0.000001 -0.000000 -0.234750 -0.268815 -4.275190 12.994200 -0.242716 4.980390 -88.874900 -2.957570 -69.162600 5.348090 -0.000007 -0.000001 -70.322600 36.269600 2.770320 24.328600 0.000019 0.000005 7.875790 0.563080 -85.951800 22.291600 -0.000001 0.000005 -1.612060 5.636800 -13.860000 12.994500 -0.242716 -4.980390 88.452800 3.976270 -68.720000 -5.348130 -0.000001 -0.000004 -52.420600 35.086200 -29.511600 -24.328900 0.000322 -0.000009 3.763510 -0.894413 -103.378000 -22.291500 -0.000108 -0.000004 8.326030 5.585820 -10.530300 -2.192480 -6.469440 -0.000000 -177.112000 -4.935090 -25.720600 39.081100 -0.000007 -0.000012 -0.611938 -0.288662 115.254000 40.985400 -0.000006 -0.000013 13.585500 -6.866130 -42.026700 11.754300 -0.000000 0.000003 -0.006290 -0.073453 -19.566500 -2.192510 6.469440 -0.000001 -171.171000 9.922820 159.877000 -39.081100 -0.002282 -0.040193 0.233345 -0.154125 56.188000 -40.985400 0.000008 0.000006 13.929700 -3.004880 -86.849200 -11.754300 -0.000006 -0.000006 -0.498617 -0.617023 -19.862500
0.000000 0.000000 0.000000 0.000000 0.000000 -0.000000 -5.209530 84.611600 28.037400 -89.447300 1.718310 176.367000 15.735700 0.000005 -0.000001 101.643000 82.635500 -99.915900 8.984550 -0.406207 -0.000000 6.624530 2.945880 3.279540 16.377300 -0.000001 -0.000001 -0.553676 -2.322950 -0.177048 6.456720 -0.000001 -0.000000 0.700494 -4.022920 -3.235470 12.994200 -0.242716 4.980390 -88.390000 -3.956360 -67.838200 5.348090 -0.000007 -0.000001 -68.922300 39.705800 6.501590 24.328600 0.000019 0.000005 3.243390 -0.023679 -90.439600 22.291600 -0.000001 0.000005 -2.391830 5.623480 -12.856900 12.994500 -0.242716 -4.980390 88.954400 2.826860 -69.693900 -5.348130 -0.000001 -0.000004 -51.750500 35.100000 -33.965400 -24.328900 0.000322 -0.000009 -1.064430 0.350143 -108.152000 -22.291500 -0.000108 -0.000004 9.793240 5.579770 -10.200200 -2.192480 -6.469440 -0.000000 178.259000 -3.418490 -34.136500 39.081100 -0.000007 -0.000012 -0.554548 -0.208206 110.579000 40.985400 -0.000006 -0.000013 12.484800 -7.905290 -48.577600 11.754300 -0.000000 0.000003 -0.005973 -0.070595 -19.449900 -2.192510 6.469440 -0.000001 -175.936000 10.519100 170.050000 -39.081100 -0.002282 -0.040193 0.185792 -0.161904 48.428500 -40.985400 0.000008 0.000006 13.951000 0.149888 -82.259100 -11.754300 -0.000006 -0.000006 -1.734440 -1.744710 -26.598000
0.000000 0.000000 0.000000 0.000000 0.000000 -0.000000 -5.871040 87.687900 17.369000 -92.119900 3.590670 175.723000 15.735700 0.000005 -0.000001 112.949000 82.512800 -112.554000 8.984550 -0.406207 -0.000000 6.027310 5.817070 0.483868 16.377300 -0.000001 -0.000001 -0.226370 -2.196900 0.200279 6.456720 -0.000001 -0.000000 1.301860 -6.648330 -1.528190 12.994200 -0.242716 4.980390 -87.772000 -5.010100 -65.989200 5.348090 -0.000007 -0.000001 -68.943700 40.331500 10.327000 24.328600 0.000019 0.000005 1.693020 -0.120805 -94.085300 22.291600 -0.000001 0.000005 -3.250060 5.609540 -11.926800 12.994500 -0.242716 -4.980390 89.269400 2.114650 -70.937100 -5.348130 -0.000001 -0.000004 -50.944000 36.234400 -36.718600 -24.328900 0.000322 -0.000009 -2.145820 0.799503 -110.425000 -22.291500 -0.000108 -0.000004 10.365600 5.582670 -10.357300 -2.192480 -6.469440 -0.000000 173.916000 -1.803480 -37.961800 39.081100 -0.000007 -0.000012 -0.331675 -0.041600 97.150400 40.985400 -0.000006 -0.000013 10.847300 -9.765430 -54.090600 11.754300 -0.000000 0.000003 -0.005690 -0.067998 -19.344000 -2.192510 6.469440 -0.000001 178.447000 10.131700 179.070000 -39.081100 -0.002282 -0.040193 0.122456 -0.142761 39.855400 -40.985400 0.000008 0.000006 12.827000 5.446280 -68.851000 -11.754300 -0.000006 -0.000006 -0.147580 -0.549937 -39.816200
0.000000 0.000000 0.000000 0.000000 0.000000 -0.000000 -6.322070 90.988800 6.919600 -93.157500 4.462250 175.247000 15.735700 0.000005 -0.000001 119.695000 82.380500 -120.013000 8.984550 -0.406207 -0.000000 5.530380 7.537790 -1.000030 16.377300 -0.000001 -0.000001 0.379696 -2.004750 0.140446 6.456720 -0.000001 -0.000000 1.418720 -7.985680 -0.417518 12.994200 -0.242716 4.980390 -87.116600 -6.156920 -64.844900 5.348090 -0.000007 -0.000001 -70.455600 38.844600 14.644200 24.328600 0.000019 0.000005 0.983117 -0.116943 -96.802100 22.291600 -0.000001 0.000005 -3.020620 5.594020 -10.994300 12.994500 -0.242716 -4.980390 89.623700 1.121150 -71.446500 -5.348130 -0.000001 -0.000004 -51.083100 38.427700 -38.187700 -24.328900 0.000322 -0.000009 -1.254050 0.456380 -109.987000 -22.291500 -0.000108 -0.000004 8.905950 5.572030 -9.783400 -2.192480 -6.469440 -0.000000 172.578000 0.054312 -38.180200 39.081100 -0.000007 -0.000012 -0.119333 0.025946 77.736500 40.985400 -0.000006 -0.000013 9.496010 -12.258100 -57.725600 11.754300 -0.000000 0.000003 -0.006530 -0.075584 -19.653400 -2.192510 6.469440 -0.000001 174.041000 12.491100 -174.683000 -39.081100 -0.002282 -0.040193 0.079362 -0.118995 32.588000 -40.985400 0.000008 0.000006 9.495650 13.026000 -48.245000 -11.754300 -0.000006 -0.000006 -0.252500 -0.725932 -48.130700
0.000000 0.000000 0.000000 0.000000 0.000000 -0.000000 -6.448560 93.378400 -3.392890 -91.983700 4.232460 175.934000 15.735700 0.000005 -0.000001 122.159000 82.148100 -122.353000 8.984550 -0.406207 -0.000000 5.589250 8.342480 -0.797436 16.377300 -0.000001 -0.000001 1.044920 -1.703550 -0.142091 6.456720 -0.000001 -0.000000 1.529350 -8.582540 0.192984 12.994200 -0.242716 4.980390 -86.397100 -7.530040 -64.336400 5.348090 -0.000007 -0.000001 -72.192700 36.402700 18.395900 24.328600 0.000019 0.000005 0.027221 -0.004081 -99.007900 22.291600 -0.000001 0.000005 -1.948890 5.585090 -10.488600 12.994500 -0.242716 -4.980390 89.942200 0.176348 -71.873100 -5.348130 -0.000001 -0.000004 -51.983100 40.834600 -38.608800 -24.328900 0.000322 -0.000009 -0.585222 0.189148 -107.888000 -22.291500 -0.000108 -0.000004 7.902060 5.552890 -8.843260 -2.192480 -6.469440 -0.000000 174.346000 1.295620 -33.823700 39.081100 -0.000007 -0.000012 0.009582 -0.006989 53.877100 40.985400 -0.000006 -0.000013 8.867990 -12.329600 -61.220500 11.754300 -0.000000 0.000003 -0.005869 -0.069652 -19.411400 -2.192510 6.469440 -0.000001 172.107000 13.690900 -169.661000 -39.081100 -0.002282 -0.040193 0.081619 -0.142046 28.869400 -40.985400 0.000008 0.000006 0.210863 14.311000 -30.615200 -11.754300 -0.000006 -0.000006 -0.039986 -0.260053 -27.255500
